<?xml version="1.0" encoding="UTF-8"?>
<svg width="26px" height="38px" viewBox="0 0 26 38" version="1.1" xmlns="http://www.w3.org/2000/svg" xmlns:xlink="http://www.w3.org/1999/xlink">
    <!-- Generator: Sketch 49.3 (51167) - http://www.bohemiancoding.com/sketch -->
    <title>Icon 24px Copy 6</title>
    <desc>Created with Sketch.</desc>
    <defs></defs>
    <g id="Store-Finder--Desktop--L-1280---MC" stroke="none" stroke-width="1" fill="none" fill-rule="evenodd">
        <g id="Maxi-Cosi---Store-Finder---Desktop---L---1280x" transform="translate(-871.000000, -523.000000)">
            <g id="Section--Map" transform="translate(419.000000, 180.000000)">
                <g id="Icon-24px-Copy-6" transform="translate(444.000000, 339.000000)">
                    <path d="M20.7692308,4.61538462 C13.7521978,4.61538462 8.07692308,10.3938462 8.07692308,17.5384615 C8.07692308,27.2307692 20.7692308,41.5384615 20.7692308,41.5384615 C20.7692308,41.5384615 33.4615385,27.2307692 33.4615385,17.5384615 C33.4615385,10.3938462 27.7862637,4.61538462 20.7692308,4.61538462 L20.7692308,4.61538462 Z" id="Shape" fill="#0096C3"></path>
                    <polygon id="Shape" points="0 0 45 0 45 45 0 45"></polygon>
                    <g id="Group" transform="translate(8.076923, 5.769231)">
                        <path d="M12.6923077,0.906593407 C6.18325279,0.906593407 0.906593407,6.18325279 0.906593407,12.6925788 C0.906593407,19.2013626 6.18325279,24.478022 12.6923077,24.478022 C19.2013626,24.478022 24.478022,19.2013626 24.478022,12.6925788 C24.478022,6.18325279 19.2013626,0.906593407 12.6923077,0.906593407" id="Fill-49-Copy" fill="#FFFFFF"></path>
                        <path d="M20.396756,14.865462 C20.0796308,15.1825872 12.3845269,20.8911326 12.3845269,20.8911326 C11.9520569,21.189569 11.4281871,21.3653603 10.8631436,21.3653603 C10.1220168,21.3653603 9.45155696,21.0648798 8.96564875,20.5792636 L4.99311559,16.2157262 C4.54750507,15.7701157 4.3246998,15.1863834 4.3246998,14.6026511 C4.3246998,14.0186268 4.53699263,13.4240901 4.99311559,12.989284 C5.86827598,12.1550054 6.56034475,12.3056836 6.85673707,12.3477334 C7.1531294,12.3894911 7.34060119,12.6485059 7.28424285,12.9317576 C7.16188976,13.5467352 7.29533931,14.2244954 7.66269058,14.9332089 C7.94302224,15.4745994 8.38250051,15.921962 8.93294339,16.1836048 C10.2513782,16.8105549 11.5587166,16.5515401 12.4528577,15.8104133 L12.4551938,15.8118734 L17.4453893,11.424099 C18.2717837,10.6888124 19.6798662,10.8999372 20.396756,11.6393119 C21.2739605,12.5436735 21.2876851,13.974533 20.396756,14.865462 M10.4242494,10.6736278 C11.9173075,10.6736278 13.1276978,11.8840181 13.1276978,13.3770762 C13.1276978,14.8704262 11.9173075,16.0808166 10.4242494,16.0808166 C8.93089931,16.0808166 7.72050899,14.8704262 7.72050899,13.3770762 C7.72050899,11.8840181 8.93089931,10.6736278 10.4242494,10.6736278 M14.7463211,4.28790627 C16.7466043,4.01750303 18.5874488,5.41974533 18.857852,7.42002849 C19.1282553,9.42060367 17.726013,11.2611562 15.7254378,11.5315594 C13.7251546,11.8019627 11.8846021,10.3997204 11.6141989,8.3991452 C11.3437956,6.39886204 12.7460379,4.55830952 14.7463211,4.28790627 M12.6923077,0 C5.68255626,0 0,5.68255626 0,12.6925997 C0,19.7020591 5.68255626,25.3846154 12.6923077,25.3846154 C19.7020591,25.3846154 25.3846154,19.7020591 25.3846154,12.6925997 C25.3846154,5.68255626 19.7020591,0 12.6923077,0" id="Fill-49" fill="#0096C3"></path>
                    </g>
                </g>
            </g>
        </g>
    </g>
</svg>